Coordinates
version=1
nRows=29
nColumns=8
inDegrees=yes

Units are S.I. units (second, meters, Newtons, ...)
If the header above contains a line with 'inDegrees', this indicates whether rotational values are in degrees (yes) or radians (no).

endheader
time	bJoint_1	bJoint_3	bJoint_4	seatpos	hipangle	kneeangle	footangle
      2.52000000	      0.00000000	     -0.00000000	      0.00000000	     -0.48308718	     33.43994616	    122.06035461	     65.50030076
      2.54000000	      0.00000000	     -0.00000000	     -0.00000000	     -0.48208718	     33.50552389	    121.92058453	     65.42610841
      2.56000000	      0.00000000	     -0.00000000	     -0.00000000	     -0.48008719	     33.63693606	    121.64074228	     65.27767835
      2.58000000	      0.00000000	     -0.00000000	      0.00000000	     -0.47908720	     33.70277104	    121.50066820	     65.20343924
      2.60000000	      0.00000000	     -0.00000000	      0.00000000	     -0.47708721	     33.83469985	    121.22020983	     65.05490968
      2.62000000	      0.00000000	     -0.00000000	     -0.00000000	     -0.47608720	     33.90079490	    121.07982222	     64.98061712
      2.64000000	      0.00000000	      0.00000000	     -0.00000000	     -0.47508725	     33.96697094	    120.93934143	     64.90631238
      2.66000000	      0.00000000	     -0.00000000	     -0.00000000	     -0.47308724	     34.09958993	    120.65804808	     64.75763801
      2.68000000	      0.00000000	     -0.00000000	      0.00000000	     -0.47208724	     34.16602770	    120.51724575	     64.68327345
      2.70000000	      0.00000000	      0.00000000	      0.00000000	     -0.47008717	     34.29916700	    120.23531274	     64.53447974
      2.72000000	      0.00000000	     -0.00000000	     -0.00000000	     -0.46908726	     34.36585733	    120.09420505	     64.46006238
      2.74000000	      0.00000000	     -0.00000000	      0.00000000	     -0.46808727	     34.43263959	    119.95297847	     64.38561807
      2.76000000	      0.00000000	     -0.00000000	     -0.00000000	     -0.46608725	     34.56646395	    119.67020106	     64.23666501
      2.78000000	      0.00000000	     -0.00000000	      0.00000000	     -0.46508728	     34.63350329	    119.52865537	     64.16215865
      2.80000000	      0.00000000	      0.00000000	      0.00000000	     -0.46408732	     34.70062813	    119.38700301	     64.08763114
      2.82000000	      0.00000000	     -0.00000000	      0.00000000	     -0.46208730	     34.83514348	    119.10335773	     63.93850121
      2.84000000	      0.00000000	     -0.00000000	      0.00000000	     -0.46108729	     34.90253064	    118.96137120	     63.86390184
      2.86000000	      0.00000000	     -0.00000000	      0.00000000	     -0.45908731	     35.03756127	    118.67707436	     63.71463563
      2.88000000	      0.00000000	     -0.00000000	      0.00000000	     -0.45808732	     35.10520666	    118.53475937	     63.63996602
      2.90000000	      0.00000000	     -0.00000000	     -0.00000000	     -0.45708733	     35.17293886	    118.39233270	     63.56527157
      2.92000000	      0.00000000	     -0.00000000	     -0.00000000	     -0.45508734	     35.30866319	    118.10714424	     63.41580744
      2.94000000	      0.00000000	     -0.00000000	     -0.00000000	     -0.45408734	     35.37665552	    117.96438142	     63.34103694
      2.96000000	      0.00000000	     -0.00000000	     -0.00000000	     -0.45208736	     35.51289997	    117.67851817	     63.19141814
      2.98000000	      0.00000000	     -0.00000000	      0.00000000	     -0.45108736	     35.58115372	    117.53541376	     63.11656748
      3.00000000	      0.00000000	     -0.00000000	     -0.00000000	     -0.45008737	     35.64949360	    117.39219702	     63.04169063
      3.02000000	      0.00000000	     -0.00000000	      0.00000000	     -0.44808736	     35.78643622	    117.10541605	     62.89185228
      3.04000000	      0.00000000	      0.00000000	      0.00000000	     -0.44708741	     35.85503472	    116.96186015	     62.81689487
      3.06000000	      0.00000000	      0.00000000	     -0.00000000	     -0.44608733	     35.92372994	    116.81816862	     62.74189856
      3.08000000	      0.00000000	     -0.00000000	     -0.00000000	     -0.44408727	     36.06137584	    116.53045023	     62.59182607
